<mxfile host="app.diagrams.net" agent="Mozilla/5.0 (Windows NT 10.0; Win64; x64) AppleWebKit/537.36 (KHTML, like Gecko) Chrome/131.0.0.0 Safari/537.36" version="26.0.6">
  <diagram name="第 1 页" id="BBjcjCPQKE8Rdczkw8qz">
    <mxGraphModel dx="322" dy="367" grid="1" gridSize="10" guides="1" tooltips="1" connect="1" arrows="1" fold="1" page="1" pageScale="1" pageWidth="827" pageHeight="1169" math="0" shadow="0">
      <root>
        <mxCell id="0" />
        <mxCell id="1" parent="0" />
        <mxCell id="9l9gcxOGcMHAikn7koUY-1" value="创建routine" style="rounded=1;whiteSpace=wrap;html=1;" parent="1" vertex="1">
          <mxGeometry x="10" y="80" width="120" height="60" as="geometry" />
        </mxCell>
        <mxCell id="9l9gcxOGcMHAikn7koUY-2" value="上下文环境" style="rounded=1;whiteSpace=wrap;html=1;" parent="1" vertex="1">
          <mxGeometry x="10" y="150" width="120" height="60" as="geometry" />
        </mxCell>
        <mxCell id="9l9gcxOGcMHAikn7koUY-3" value="超时处理" style="rounded=1;whiteSpace=wrap;html=1;" parent="1" vertex="1">
          <mxGeometry x="10" y="220" width="120" height="60" as="geometry" />
        </mxCell>
        <mxCell id="9l9gcxOGcMHAikn7koUY-6" value="" style="edgeStyle=orthogonalEdgeStyle;rounded=0;orthogonalLoop=1;jettySize=auto;html=1;" parent="1" source="9l9gcxOGcMHAikn7koUY-4" target="9l9gcxOGcMHAikn7koUY-5" edge="1">
          <mxGeometry relative="1" as="geometry" />
        </mxCell>
        <mxCell id="9l9gcxOGcMHAikn7koUY-4" value="初始化routine" style="rounded=1;whiteSpace=wrap;html=1;" parent="1" vertex="1">
          <mxGeometry x="10" y="10" width="120" height="60" as="geometry" />
        </mxCell>
        <mxCell id="9l9gcxOGcMHAikn7koUY-5" value="设置默认超时处理" style="whiteSpace=wrap;html=1;rounded=1;" parent="1" vertex="1">
          <mxGeometry x="170" y="10" width="120" height="60" as="geometry" />
        </mxCell>
        <mxCell id="9l9gcxOGcMHAikn7koUY-11" value="" style="edgeStyle=orthogonalEdgeStyle;rounded=0;orthogonalLoop=1;jettySize=auto;html=1;" parent="1" source="9l9gcxOGcMHAikn7koUY-8" target="9l9gcxOGcMHAikn7koUY-10" edge="1">
          <mxGeometry relative="1" as="geometry" />
        </mxCell>
        <mxCell id="9l9gcxOGcMHAikn7koUY-8" value="设置异步的步骤" style="whiteSpace=wrap;html=1;rounded=1;" parent="1" vertex="1">
          <mxGeometry x="410" y="200" width="120" height="60" as="geometry" />
        </mxCell>
        <mxCell id="9l9gcxOGcMHAikn7koUY-13" value="" style="edgeStyle=orthogonalEdgeStyle;rounded=0;orthogonalLoop=1;jettySize=auto;html=1;" parent="1" source="9l9gcxOGcMHAikn7koUY-10" target="9l9gcxOGcMHAikn7koUY-12" edge="1">
          <mxGeometry relative="1" as="geometry" />
        </mxCell>
        <mxCell id="9l9gcxOGcMHAikn7koUY-10" value="&lt;div&gt;&amp;nbsp; ROUTINE_STEP_EX steps[] = {&lt;/div&gt;&lt;div&gt;&amp;nbsp; &amp;nbsp; &amp;nbsp; {NS_FUNCMGR_TWRAP(act_take_alliance_reward_start), 5},&lt;span style=&quot;background-color: transparent; color: light-dark(rgb(0, 0, 0), rgb(255, 255, 255));&quot;&gt;&amp;nbsp; };&lt;/span&gt;&lt;/div&gt;&lt;div&gt;&lt;br&gt;&lt;/div&gt;" style="whiteSpace=wrap;html=1;rounded=1;" parent="1" vertex="1">
          <mxGeometry x="250" y="290" width="440" height="60" as="geometry" />
        </mxCell>
        <mxCell id="9l9gcxOGcMHAikn7koUY-15" value="" style="edgeStyle=orthogonalEdgeStyle;rounded=0;orthogonalLoop=1;jettySize=auto;html=1;" parent="1" source="9l9gcxOGcMHAikn7koUY-12" target="9l9gcxOGcMHAikn7koUY-14" edge="1">
          <mxGeometry relative="1" as="geometry" />
        </mxCell>
        <mxCell id="9l9gcxOGcMHAikn7koUY-12" value="设置异步的上下文" style="whiteSpace=wrap;html=1;rounded=1;" parent="1" vertex="1">
          <mxGeometry x="410" y="380" width="120" height="60" as="geometry" />
        </mxCell>
        <mxCell id="9l9gcxOGcMHAikn7koUY-17" style="edgeStyle=orthogonalEdgeStyle;rounded=0;orthogonalLoop=1;jettySize=auto;html=1;" parent="1" source="9l9gcxOGcMHAikn7koUY-14" target="9l9gcxOGcMHAikn7koUY-16" edge="1">
          <mxGeometry relative="1" as="geometry" />
        </mxCell>
        <mxCell id="9l9gcxOGcMHAikn7koUY-14" value="TakeAllianceRewardCtx ctx{ alliance_id, uid, act_id, task_id, cond_id};" style="whiteSpace=wrap;html=1;rounded=1;" parent="1" vertex="1">
          <mxGeometry x="270" y="470" width="400" height="30" as="geometry" />
        </mxCell>
        <mxCell id="9l9gcxOGcMHAikn7koUY-19" value="" style="edgeStyle=orthogonalEdgeStyle;rounded=0;orthogonalLoop=1;jettySize=auto;html=1;" parent="1" source="9l9gcxOGcMHAikn7koUY-16" target="9l9gcxOGcMHAikn7koUY-18" edge="1">
          <mxGeometry relative="1" as="geometry" />
        </mxCell>
        <mxCell id="9l9gcxOGcMHAikn7koUY-16" value="创建routine" style="rounded=1;whiteSpace=wrap;html=1;" parent="1" vertex="1">
          <mxGeometry x="410" y="530" width="120" height="30" as="geometry" />
        </mxCell>
        <mxCell id="9l9gcxOGcMHAikn7koUY-21" value="" style="edgeStyle=orthogonalEdgeStyle;rounded=0;orthogonalLoop=1;jettySize=auto;html=1;" parent="1" source="9l9gcxOGcMHAikn7koUY-18" target="9l9gcxOGcMHAikn7koUY-20" edge="1">
          <mxGeometry relative="1" as="geometry" />
        </mxCell>
        <mxCell id="9l9gcxOGcMHAikn7koUY-18" value="设置异步结束的处理函数" style="whiteSpace=wrap;html=1;rounded=1;" parent="1" vertex="1">
          <mxGeometry x="410" y="590" width="120" height="50" as="geometry" />
        </mxCell>
        <mxCell id="9l9gcxOGcMHAikn7koUY-20" value="&lt;div&gt;&amp;nbsp;auto rt_mid = routine_create(steps, ARR_LEN(steps), &amp;amp;ctx, sizeof(ctx),&amp;nbsp;&lt;/div&gt;&lt;div&gt;&amp;nbsp; &amp;nbsp; &amp;nbsp; &amp;nbsp; &amp;nbsp; &amp;nbsp; &amp;nbsp; &amp;nbsp; NS_FUNCMGR_TWRAP(act_take_alliance_reward_fini), 0, 0);&lt;/div&gt;" style="whiteSpace=wrap;html=1;rounded=1;" parent="1" vertex="1">
          <mxGeometry x="230" y="670" width="480" height="40" as="geometry" />
        </mxCell>
        <mxCell id="9l9gcxOGcMHAikn7koUY-22" value="routine_create" style="rounded=1;whiteSpace=wrap;html=1;" parent="1" vertex="1">
          <mxGeometry x="30" y="730" width="120" height="60" as="geometry" />
        </mxCell>
        <mxCell id="9l9gcxOGcMHAikn7koUY-23" value="函数指针模板的应用" style="rounded=1;whiteSpace=wrap;html=1;" parent="1" vertex="1">
          <mxGeometry x="880" y="10" width="120" height="60" as="geometry" />
        </mxCell>
        <mxCell id="9l9gcxOGcMHAikn7koUY-24" value="" style="rounded=1;whiteSpace=wrap;html=1;fillColor=none;" parent="1" vertex="1">
          <mxGeometry x="30" y="810" width="190" height="320" as="geometry" />
        </mxCell>
        <mxCell id="9l9gcxOGcMHAikn7koUY-25" value="routine的内存分布" style="rounded=1;whiteSpace=wrap;html=1;" parent="1" vertex="1">
          <mxGeometry x="330" y="730" width="120" height="60" as="geometry" />
        </mxCell>
        <mxCell id="9l9gcxOGcMHAikn7koUY-26" value="ROUTINE_STEP&lt;div&gt;异步处理函数及其超时处理函数&lt;/div&gt;" style="rounded=1;whiteSpace=wrap;html=1;" parent="1" vertex="1">
          <mxGeometry x="35" y="830" width="180" height="40" as="geometry" />
        </mxCell>
        <mxCell id="9l9gcxOGcMHAikn7koUY-27" value="FN_ROUTINE_FINI&lt;div&gt;处理完成函数&lt;/div&gt;" style="rounded=1;whiteSpace=wrap;html=1;" parent="1" vertex="1">
          <mxGeometry x="35" y="880" width="180" height="30" as="geometry" />
        </mxCell>
        <mxCell id="9l9gcxOGcMHAikn7koUY-28" value="routine mid 和 定时器 mid" style="rounded=1;whiteSpace=wrap;html=1;" parent="1" vertex="1">
          <mxGeometry x="35" y="920" width="180" height="40" as="geometry" />
        </mxCell>
        <mxCell id="9l9gcxOGcMHAikn7koUY-29" value="其他各种标记" style="rounded=1;whiteSpace=wrap;html=1;" parent="1" vertex="1">
          <mxGeometry x="35" y="970" width="180" height="40" as="geometry" />
        </mxCell>
        <mxCell id="9l9gcxOGcMHAikn7koUY-34" style="edgeStyle=orthogonalEdgeStyle;rounded=0;orthogonalLoop=1;jettySize=auto;html=1;entryX=0.5;entryY=0;entryDx=0;entryDy=0;" parent="1" source="9l9gcxOGcMHAikn7koUY-30" target="9l9gcxOGcMHAikn7koUY-33" edge="1">
          <mxGeometry relative="1" as="geometry" />
        </mxCell>
        <mxCell id="9l9gcxOGcMHAikn7koUY-30" value="routine_start" style="rounded=1;whiteSpace=wrap;html=1;" parent="1" vertex="1">
          <mxGeometry x="460" y="1040" width="120" height="60" as="geometry" />
        </mxCell>
        <mxCell id="9l9gcxOGcMHAikn7koUY-31" value="routine_proc" style="whiteSpace=wrap;html=1;rounded=1;" parent="1" vertex="1">
          <mxGeometry x="640" y="1160" width="120" height="60" as="geometry" />
        </mxCell>
        <mxCell id="9l9gcxOGcMHAikn7koUY-35" style="edgeStyle=orthogonalEdgeStyle;rounded=0;orthogonalLoop=1;jettySize=auto;html=1;exitX=1;exitY=0.5;exitDx=0;exitDy=0;entryX=0;entryY=0.5;entryDx=0;entryDy=0;" parent="1" source="9l9gcxOGcMHAikn7koUY-33" target="9l9gcxOGcMHAikn7koUY-31" edge="1">
          <mxGeometry relative="1" as="geometry" />
        </mxCell>
        <mxCell id="9l9gcxOGcMHAikn7koUY-40" value="否" style="edgeLabel;html=1;align=center;verticalAlign=middle;resizable=0;points=[];" parent="9l9gcxOGcMHAikn7koUY-35" vertex="1" connectable="0">
          <mxGeometry x="-0.2635" relative="1" as="geometry">
            <mxPoint as="offset" />
          </mxGeometry>
        </mxCell>
        <mxCell id="9l9gcxOGcMHAikn7koUY-39" style="edgeStyle=orthogonalEdgeStyle;rounded=0;orthogonalLoop=1;jettySize=auto;html=1;entryX=0.5;entryY=0;entryDx=0;entryDy=0;" parent="1" source="9l9gcxOGcMHAikn7koUY-33" target="9l9gcxOGcMHAikn7koUY-38" edge="1">
          <mxGeometry relative="1" as="geometry" />
        </mxCell>
        <mxCell id="9l9gcxOGcMHAikn7koUY-41" value="是" style="edgeLabel;html=1;align=center;verticalAlign=middle;resizable=0;points=[];" parent="9l9gcxOGcMHAikn7koUY-39" vertex="1" connectable="0">
          <mxGeometry x="0.1631" y="-6" relative="1" as="geometry">
            <mxPoint as="offset" />
          </mxGeometry>
        </mxCell>
        <mxCell id="9l9gcxOGcMHAikn7koUY-33" value="是否需要上锁" style="rhombus;whiteSpace=wrap;html=1;" parent="1" vertex="1">
          <mxGeometry x="480" y="1150" width="80" height="80" as="geometry" />
        </mxCell>
        <mxCell id="9l9gcxOGcMHAikn7koUY-38" value="" style="rounded=1;whiteSpace=wrap;html=1;" parent="1" vertex="1">
          <mxGeometry x="460" y="1280" width="120" height="60" as="geometry" />
        </mxCell>
        <mxCell id="9l9gcxOGcMHAikn7koUY-42" value="异步锁" style="rounded=1;whiteSpace=wrap;html=1;" parent="1" vertex="1">
          <mxGeometry x="1440" y="20" width="120" height="60" as="geometry" />
        </mxCell>
        <mxCell id="9l9gcxOGcMHAikn7koUY-43" value="LockServer" style="rounded=1;whiteSpace=wrap;html=1;" parent="1" vertex="1">
          <mxGeometry x="1340" y="160" width="120" height="60" as="geometry" />
        </mxCell>
        <mxCell id="9l9gcxOGcMHAikn7koUY-44" value="LockClient" style="rounded=1;whiteSpace=wrap;html=1;" parent="1" vertex="1">
          <mxGeometry x="1560" y="160" width="120" height="60" as="geometry" />
        </mxCell>
      </root>
    </mxGraphModel>
  </diagram>
</mxfile>
